<?xml version="1.0" encoding="utf-8"?>
<!-- Generator: Adobe Illustrator 28.0.0, SVG Export Plug-In . SVG Version: 6.00 Build 0)  -->
<svg version="1.1" id="Layer_1" xmlns="http://www.w3.org/2000/svg" xmlns:xlink="http://www.w3.org/1999/xlink" x="0px" y="0px"
	 viewBox="0 0 103 120" style="enable-background:new 0 0 103 120;" xml:space="preserve">
<style type="text/css">
	.st0{fill:#40A2CE;}
</style>
<path class="st0" d="M88.12,16.33H13.88c-1.2,0-2.18,0.98-2.18,2.18V86.2c0,2.4,1.97,4.37,4.37,4.37h5.13
	c1.91,0,3.55,1.47,3.77,3.38c1.64,12.88,12.66,22.82,25.98,22.82c13.32,0,24.35-9.93,25.98-22.82c0.27-1.91,1.86-3.38,3.77-3.38
	h5.13c2.4,0,4.37-1.97,4.37-4.37V18.51C90.3,17.31,89.32,16.33,88.12,16.33z M85.94,86.2h-5.13c-4.09,0-7.59,3.11-8.13,7.21
	c-1.42,10.81-10.7,19-21.67,19s-20.25-8.19-21.67-19c-0.55-4.09-4.04-7.21-8.13-7.21h-5.13V20.7h69.87V86.2z"/>
<path class="st0" d="M31.02,14.15h5.02c1.04,0,1.86-0.82,1.86-1.86V5.08c0-1.04-0.82-1.86-1.86-1.86h-5.02
	c-1.04,0-1.86,0.82-1.86,1.86v7.21C29.16,13.33,29.98,14.15,31.02,14.15z M31.35,5.41h4.37v6.55h-4.37V5.41z"/>
<path class="st0" d="M65.96,14.15h5.02c1.04,0,1.86-0.82,1.86-1.86V5.08c0-1.04-0.82-1.86-1.86-1.86h-5.02
	c-1.04,0-1.86,0.82-1.86,1.86v7.21C64.1,13.33,64.92,14.15,65.96,14.15z M66.28,5.41h4.37v6.55h-4.37V5.41z"/>
<path class="st0" d="M27.53,6.5H5.14c-1.2,0-2.18,0.98-2.18,2.18c0,1.2,0.98,2.18,2.18,2.18h22.38V6.5z"/>
<path class="st0" d="M61.92,6.5H39.54v4.37h22.38V6.5z"/>
<path class="st0" d="M96.86,6.5H73.93v4.37h22.93c1.2,0,2.18-0.98,2.18-2.18C99.04,7.49,98.06,6.5,96.86,6.5z"/>
<path class="st0" d="M61.37,79.93c0.16-1.31-0.87-2.46-2.18-2.46H42.81c-1.31,0-2.35,1.15-2.18,2.46c0.6,4.8,2.78,15.01,10.37,15.01
	c3.49,0,5.79-2.13,7.37-4.91c0.76,0,3.77-0.11,5.24-1.31l2.73-4.15c0-1.8-2.07-3.28-4.37-3.28h-0.82
	C61.26,80.8,61.32,80.36,61.37,79.93z M61.97,83.47c0.93,0,1.64,0.38,1.97,0.76l-1.91,2.95c-0.49,0.27-1.31,0.44-2.18,0.6l1.91-4.26
	h0.22V83.47z M51,92.75c-2.46,0-4.37-1.47-5.84-4.48c-1.42-2.84-2.07-6.22-2.35-8.63h16.38c-0.55,2.35-0.93,5.79-2.35,8.63
	C55.31,91.28,53.46,92.75,51,92.75z"/>
<path class="st0" d="M46.14,65.95c-0.22,0.22-0.6,0.55-0.98,0.98c-0.38,0.44-0.66,1.15-0.71,1.75c0,0.16,0,0.27,0,0.49
	c0,0.11,0,0.22,0.05,0.33c0.05,0.22,0.05,0.49,0.11,0.71c0.11,0.44,0.22,0.82,0.38,1.15c0.27,0.66,0.55,1.2,0.82,1.53
	c0.11,0.16,0.22,0.33,0.27,0.38c0.05,0.11,0.11,0.16,0.11,0.16c0.11,0.16,0.33,0.27,0.55,0.22c0.27-0.05,0.49-0.38,0.44-0.66v-0.05
	c0,0-0.05-0.22-0.11-0.55c-0.05-0.38-0.16-0.87-0.27-1.47c-0.05-0.33-0.11-0.6-0.11-0.93c0-0.16,0-0.33,0-0.44s0-0.22,0-0.33
	c0,0,0-0.11,0-0.16c0.05-0.22,0.11-0.33,0.33-0.55c0.16-0.22,0.49-0.49,0.87-0.87c0.38-0.38,0.76-0.98,0.93-1.64
	c0.16-0.76,0.05-1.2,0-1.64c-0.16-0.93-0.38-1.69-0.65-2.35c-0.22-0.66-0.49-1.15-0.66-1.53c-0.16-0.38-0.27-0.55-0.27-0.55
	c-0.11-0.16-0.33-0.27-0.55-0.27c-0.33,0.05-0.49,0.33-0.44,0.66c0,0,0.05,0.22,0.11,0.6c0.05,0.38,0.11,0.93,0.22,1.53
	c0.11,0.66,0.16,1.36,0.22,2.13c0,0.33,0,0.82-0.05,0.87C46.52,65.51,46.41,65.68,46.14,65.95z"/>
<path class="st0" d="M51.49,59.84c-0.11-0.16-0.33-0.27-0.55-0.27c-0.33,0.05-0.49,0.33-0.44,0.66c0,0,0.05,0.22,0.11,0.6
	s0.11,0.93,0.22,1.53c0.11,0.66,0.16,1.36,0.22,2.13c0,0.33,0,0.82-0.05,0.87c-0.05,0.16-0.16,0.33-0.44,0.6
	c-0.22,0.22-0.6,0.55-0.98,0.98c-0.38,0.44-0.65,1.15-0.71,1.75c0,0.16,0,0.27,0,0.49c0,0.11,0,0.22,0.05,0.33
	c0.05,0.22,0.05,0.49,0.11,0.71c0.11,0.44,0.22,0.82,0.38,1.15c0.27,0.66,0.55,1.2,0.82,1.53c0.11,0.16,0.22,0.33,0.27,0.38
	c0.05,0.11,0.11,0.16,0.11,0.16c0.11,0.16,0.33,0.27,0.55,0.22c0.27-0.05,0.49-0.38,0.44-0.65v-0.05c0,0-0.05-0.22-0.11-0.55
	c-0.05-0.38-0.16-0.87-0.27-1.47c-0.05-0.33-0.11-0.6-0.11-0.93c0-0.16,0-0.33,0-0.44c0-0.11,0-0.22,0-0.33c0,0,0-0.11,0-0.16
	c0.05-0.22,0.11-0.33,0.33-0.55c0.16-0.22,0.49-0.49,0.87-0.87c0.38-0.38,0.76-0.98,0.93-1.64c0.16-0.76,0.05-1.2,0-1.64
	c-0.16-0.93-0.38-1.69-0.66-2.35c-0.22-0.65-0.49-1.15-0.65-1.53C51.66,60,51.49,59.84,51.49,59.84z"/>
<path class="st0" d="M54.88,65.95c-0.22,0.22-0.6,0.55-0.98,0.98c-0.38,0.44-0.65,1.15-0.71,1.75c0,0.16,0,0.27,0,0.49
	c0,0.11,0,0.22,0.05,0.33c0.05,0.22,0.05,0.49,0.11,0.71c0.11,0.44,0.22,0.82,0.38,1.15c0.27,0.66,0.55,1.2,0.82,1.53
	c0.11,0.16,0.22,0.33,0.27,0.38c0.05,0.11,0.11,0.16,0.11,0.16c0.11,0.16,0.33,0.27,0.55,0.22c0.27-0.05,0.49-0.38,0.44-0.66v-0.05
	c0,0-0.05-0.22-0.11-0.55c-0.05-0.38-0.16-0.87-0.27-1.47c-0.05-0.33-0.11-0.6-0.11-0.93c0-0.16,0-0.33,0-0.44s0-0.22,0-0.33
	c0,0,0-0.11,0-0.16c0.05-0.22,0.11-0.33,0.33-0.55c0.16-0.22,0.49-0.49,0.87-0.87s0.76-0.98,0.93-1.64c0.16-0.76,0.05-1.2,0-1.64
	c-0.16-0.93-0.38-1.69-0.66-2.35c-0.22-0.66-0.49-1.15-0.65-1.53c-0.16-0.38-0.27-0.55-0.27-0.55c-0.11-0.16-0.33-0.27-0.55-0.27
	c-0.33,0.05-0.49,0.33-0.44,0.66c0,0,0.05,0.22,0.11,0.6s0.11,0.93,0.22,1.53c0.11,0.66,0.16,1.36,0.22,2.13
	c0,0.33,0,0.82-0.05,0.87C55.26,65.51,55.15,65.68,54.88,65.95z"/>
<path class="st0" d="M25.56,49.08c1.8,0,3.38-0.38,4.75-1.15L29.6,46.3c-1.09,0.38-2.29,0.6-3.66,0.6c-0.87,0-1.53-0.33-2.02-1.04
	c-0.49-0.71-0.66-1.8-0.66-3.44c0-1.58,0.22-2.73,0.71-3.38c0.49-0.66,1.09-0.98,1.86-0.98c0.76,0,1.31,0.05,1.69,0.22
	c0.05,0.71,0.22,1.53,0.38,1.53h1.8c0.16,0,0.33-0.71,0.38-1.2c0.11-0.49,0.16-0.82,0.16-1.04c0-0.22,0-0.33,0-0.44
	c-1.09-0.76-2.67-1.15-4.15-1.15c-1.8,0-3.22,0.55-4.2,1.64s-1.47,2.78-1.47,5.02c0,2.29,0.38,3.93,1.2,4.91
	C22.45,48.59,23.76,49.08,25.56,49.08z"/>
<path class="st0" d="M36.26,49.08c1.8,0,3.22-0.55,4.2-1.69c0.98-1.15,1.47-2.84,1.47-5.08c0-2.24-0.44-3.88-1.36-4.86
	c-0.93-0.98-2.24-1.47-4.04-1.47c-1.8,0-3.22,0.55-4.2,1.64c-0.98,1.09-1.47,2.78-1.47,5.02c0,2.24,0.44,3.93,1.36,4.91
	C33.1,48.59,34.46,49.08,36.26,49.08z M34.41,39.04c0.44-0.66,1.09-0.98,1.97-0.98c1.8,0,2.73,1.47,2.73,4.48
	c0,1.58-0.22,2.73-0.71,3.44c-0.49,0.71-1.15,1.04-1.97,1.04c-0.82,0-1.53-0.38-1.97-1.09c-0.49-0.71-0.71-1.91-0.71-3.49
	C33.7,40.78,33.91,39.69,34.41,39.04z"/>
<path class="st0" d="M42.81,47.44l0.16,1.64h5.24l0.22-1.64c-0.38-0.33-1.26-0.66-1.8-0.82v-3h2.57c0.16,0.55,0.38,0.6,0.55,0.76
	L51,44.17v-3.28l-1.26-0.16c-0.16,0.16-0.38,0.16-0.55,0.71h-2.57v-3.28h2.89c0.16,0.55,0.38,1.15,0.65,1.36l1.36-0.16v-3.38h-8.57
	l-0.16,1.64c0.16,0.22,0.55,0.55,1.09,0.71v8.46C43.36,46.95,42.98,47.28,42.81,47.44z"/>
<path class="st0" d="M52.64,47.44l0.16,1.64h5.24l0.22-1.64c-0.38-0.33-1.26-0.66-1.8-0.82v-3h2.57c0.16,0.55,0.38,0.6,0.55,0.76
	l1.26-0.22v-3.28l-1.26-0.16c-0.16,0.16-0.38,0.16-0.55,0.71h-2.57v-3.28h2.89c0.16,0.55,0.38,1.15,0.66,1.36l1.36-0.16v-3.38H52.8
	l-0.16,1.64c0.16,0.22,0.55,0.55,1.09,0.71v8.46C53.18,46.95,52.8,47.28,52.64,47.44z"/>
<path class="st0" d="M62.46,47.44l0.16,1.64h8.57V45.7l-1.26-0.16c-0.33,0.27-0.38,0.82-0.55,1.36h-3.11v-3.28h2.57
	c0.16,0,0.38,0.55,0.55,0.66l1.26-0.27v-3.33l-1.26-0.11c-0.16,0.16-0.38,0.27-0.55,0.82h-2.57v-3.28h2.89
	c0.16,0.55,0.38,1.15,0.66,1.36l1.36-0.16v-3.33h-8.57l-0.16,1.64c0.16,0.22,0.55,0.55,1.09,0.71v8.46
	C63.01,46.95,62.63,47.28,62.46,47.44z"/>
<path class="st0" d="M72.45,47.44l0.33,1.64h8.79V45.7l-1.42-0.16c-0.33,0.27-0.55,0.82-0.71,1.36h-3.33v-3.28H79
	c0.16,0,0.22,0.55,0.38,0.66l1.09-0.27v-3.33l-1.09-0.11c-0.16,0.16-0.22,0.27-0.38,0.82h-2.89v-3.28h3.22
	c0.16,0.55,0.49,1.15,0.76,1.36l1.47-0.16v-3.33h-8.79l-0.33,1.64c0.16,0.22,0.38,0.55,0.93,0.71v8.46
	C72.84,46.95,72.62,47.28,72.45,47.44z"/>
</svg>
