<?xml version="1.0" encoding="utf-8"?>
<!-- Generator: Adobe Illustrator 28.0.0, SVG Export Plug-In . SVG Version: 6.00 Build 0)  -->
<svg version="1.1" id="Layer_1" xmlns="http://www.w3.org/2000/svg" xmlns:xlink="http://www.w3.org/1999/xlink" x="0px" y="0px"
	 viewBox="0 0 90 90" style="enable-background:new 0 0 90 90;" xml:space="preserve">
<style type="text/css">
	.st0{fill:#40A2CE;}
</style>
<path class="st0" d="M87,30V15c0-6.64-5.36-12-12-12H15C8.36,3,3,8.36,3,15v15c0,6.64,5.36,12,12,12h3.19c0,0.11,0,0.22,0.04,0.38
	L26.96,78H6c-1.65,0-3,1.35-3,3v4.5C3,86.32,3.67,87,4.5,87h81c0.82,0,1.5-0.68,1.5-1.5V81c0-1.65-1.35-3-3-3H63.04l8.93-35.62
	C72,42.26,72,42.15,72,42h3C81.64,42,87,36.64,87,30z M6,30V15c0-4.95,4.05-9,9-9h60c4.95,0,9,4.05,9,9v15c0,4.95-4.05,9-9,9H57.75
	h-25.5H15C10.05,39,6,34.95,6,30z M51,50.03l-3.75,0.22c-1.24,0-2.25,1.01-2.25,2.25s1.01,2.25,2.25,2.25L51,54.97V57H39v-9h12
	V50.03z M60.75,51c0.26,0.11,0.75,0.9,0.75,1.5s-0.49,1.39-0.75,1.5l-13.39-0.75h-0.04h-0.08c-0.41,0-0.75-0.34-0.75-0.75
	s0.34-0.75,0.75-0.75h0.04h0.04L60.75,51z M51,45H39h-5.25v-3h22.5v3H51z M84,84H6v-3h78V84z M60.04,77.62C60,77.74,60,77.85,60,78
	H30c0-0.11,0-0.22-0.04-0.38L21.23,42h9.52v4.5c0,0.83,0.67,1.5,1.5,1.5H36v9c0,1.65,1.35,3,3,3h12c1.65,0,3-1.35,3-3v-1.88
	l6.75,0.38c1.24,0,2.25-1.76,2.25-3s-1.01-3-2.25-3L54,49.88V48h3.75c0.83,0,1.5-0.67,1.5-1.5V42h9.71L60.04,77.62z"/>
<path class="st0" d="M45,36c6.64,0,12-5.36,12-12s-5.36-12-12-12s-12,5.36-12,12S38.36,36,45,36z M45,15c4.95,0,9,4.05,9,9
	s-4.05,9-9,9s-9-4.05-9-9S40.05,15,45,15z"/>
<path class="st0" d="M45,20.62c0.41,0,0.75-0.34,0.75-0.75v-1.5c0-0.41-0.34-0.75-0.75-0.75s-0.75,0.34-0.75,0.75v1.5
	C44.25,20.29,44.59,20.62,45,20.62z"/>
<path class="st0" d="M48.38,24c0,0.41,0.34,0.75,0.75,0.75h1.5c0.41,0,0.75-0.34,0.75-0.75s-0.34-0.75-0.75-0.75h-1.5
	C48.71,23.25,48.38,23.59,48.38,24z"/>
<path class="st0" d="M39.38,24.75h1.5c0.41,0,0.75-0.34,0.75-0.75s-0.34-0.75-0.75-0.75h-1.5c-0.41,0-0.75,0.34-0.75,0.75
	S38.96,24.75,39.38,24.75z"/>
<path class="st0" d="M41.48,21.56c0.15,0.15,0.34,0.23,0.52,0.23s0.38-0.08,0.53-0.23c0.3-0.3,0.3-0.75,0-1.05l-1.05-1.05
	c-0.3-0.3-0.75-0.3-1.05,0c-0.3,0.3-0.3,0.75,0,1.05L41.48,21.56z"/>
<path class="st0" d="M48.53,26.44c-0.3-0.3-0.75-0.3-1.05,0c-0.3,0.3-0.3,0.75,0,1.05l1.05,1.05c0.15,0.15,0.34,0.23,0.52,0.23
	s0.38-0.08,0.53-0.23c0.3-0.3,0.3-0.75,0-1.05L48.53,26.44z"/>
<path class="st0" d="M41.48,26.44l-1.05,1.05c-0.3,0.3-0.3,0.75,0,1.05c0.15,0.15,0.34,0.23,0.52,0.23s0.38-0.08,0.53-0.23
	l1.05-1.05c0.3-0.3,0.3-0.75,0-1.05C42.26,26.17,41.78,26.17,41.48,26.44z"/>
<path class="st0" d="M45,25.5c0.83,0,1.5-0.67,1.5-1.5c0-0.15-0.04-0.26-0.04-0.38l3.11-3.11c0.3-0.3,0.3-0.75,0-1.05
	c-0.3-0.3-0.75-0.3-1.05,0l-3.11,3.11c-0.11-0.04-0.26-0.04-0.38-0.04c-0.83,0-1.5,0.67-1.5,1.5C43.5,24.83,44.18,25.5,45,25.5z"/>
<path class="st0" d="M64.5,27h3c0.82,0,1.5-0.67,1.5-1.5v-3c0-0.83-0.68-1.5-1.5-1.5h-3c-0.83,0-1.5,0.67-1.5,1.5v3
	C63,26.33,63.67,27,64.5,27z M64.5,24h3v1.5h-3V24z"/>
<path class="st0" d="M73.5,27h3c0.82,0,1.5-0.67,1.5-1.5v-3c0-0.83-0.68-1.5-1.5-1.5h-3c-0.82,0-1.5,0.67-1.5,1.5v3
	C72,26.33,72.68,27,73.5,27z M73.5,22.5h3V24h-3V22.5z"/>
<path class="st0" d="M45,63c0,0-3,2.85-3,4.5s1.35,3,3,3s3-1.35,3-3S45,63,45,63z"/>
</svg>
