<?xml version="1.0" encoding="utf-8"?>
<!-- Generator: Adobe Illustrator 28.0.0, SVG Export Plug-In . SVG Version: 6.00 Build 0)  -->
<svg version="1.1" id="Layer_1" xmlns="http://www.w3.org/2000/svg" xmlns:xlink="http://www.w3.org/1999/xlink" x="0px" y="0px"
	 viewBox="0 0 239 64" style="enable-background:new 0 0 239 64;" xml:space="preserve">
<style type="text/css">
	.st0{fill:#FFFFFF;}
</style>
<path class="st0" d="M17.12,48.93c1.09,0.03,2.18-0.13,3.22-0.46v-2.99H15.3v-3.78h8.64v9.32c-2.17,1.05-4.56,1.56-6.97,1.49
	c-5.63,0.01-9.94-3.73-9.94-10.14c0-5.23,3.28-10.15,9.23-10.15c1.6-0.05,3.18,0.32,4.6,1.06c1.42,0.74,2.62,1.83,3.5,3.17
	l-2.76,2.58c-1.6-2.31-3.14-3.17-5.27-3.17c-3.45,0-5.46,3.24-5.46,6.52c-0.05,0.85,0.08,1.7,0.37,2.5c0.29,0.8,0.75,1.53,1.34,2.14
	c0.59,0.61,1.3,1.1,2.08,1.43C15.42,48.78,16.27,48.95,17.12,48.93z"/>
<path class="st0" d="M41.24,52.16l-4.81-7.11h-2.99v7.11h-3.66V32.6h7.81c4,0,6.9,2.18,6.9,5.97c0.02,1.29-0.37,2.55-1.12,3.6
	c-0.75,1.05-1.83,1.82-3.06,2.21l5.4,7.78H41.24z M37.54,36.35h-4.15v4.93h3.97c2.18,0,3.31-0.87,3.31-2.67
	C40.68,37.06,39.57,36.35,37.54,36.35z"/>
<path class="st0" d="M47.98,42.35c0-5.37,3.75-10.12,9.47-10.12c5.72,0,9.42,4.81,9.42,10.18c0,5.37-3.75,10.12-9.42,10.12
	S47.98,47.71,47.98,42.35z M63.03,42.35c0-3.48-2-6.58-5.58-6.58c-3.58,0-5.63,3.09-5.63,6.58s2.03,6.58,5.63,6.58
	c3.6,0,5.58-3.05,5.58-6.52V42.35z"/>
<path class="st0" d="M70.93,44.96V32.6h3.6v12.39c0,2.69,2.16,3.94,4.96,3.94c2.79,0,4.99-1.25,4.99-3.94V32.6h3.6v12.36
	c0,4.96-3.57,7.57-8.58,7.57C74.46,52.53,70.93,49.89,70.93,44.96z"/>
<path class="st0" d="M106,52.16l-8.96-13.81v13.81h-3.52V32.6h4.7l8.96,13.97V32.6h3.58v19.56H106z"/>
<path class="st0" d="M123.39,52.16h-7.24V32.6h7.24c6.88,0,10.09,4.48,10.09,9.75C133.48,47.62,130.09,52.16,123.39,52.16z
	 M123.25,36.38h-3.51v11.94h3.51c4.29,0,6.41-2.61,6.41-5.97C129.66,38.99,127.26,36.38,123.25,36.38z"/>
<path class="st0" d="M194.37,44.96V32.6h3.6v12.39c0,2.69,2.18,3.94,4.96,3.94c2.78,0,5-1.25,5-3.94V32.6h3.64v12.36
	c0,4.96-3.57,7.57-8.58,7.57C197.96,52.53,194.37,49.89,194.37,44.96z"/>
<path class="st0" d="M223.58,45.83h-3.6v6.33h-3.6V32.6h7.2c4.48,0,7.39,2.76,7.39,6.55S228.24,45.83,223.58,45.83z M223.58,36.38
	h-3.54v5.67h3.46c2.55,0,3.7-1.12,3.7-2.84c0-1.72-1.31-2.84-3.7-2.84H223.58z"/>
<path class="st0" d="M183.38,27.27h-2.03c0.3-1.85,0.49-3.46,0.61-4.7c0.04-0.35,0-0.69-0.11-1.02c-0.11-0.33-0.29-0.63-0.52-0.89
	s-0.52-0.46-0.84-0.6c-0.32-0.14-0.66-0.21-1.01-0.2h-36.76c-0.35,0-0.69,0.08-1,0.22c-0.32,0.14-0.6,0.34-0.83,0.6
	c-0.23,0.25-0.41,0.56-0.52,0.88c-0.11,0.33-0.15,0.67-0.12,1.02c0.81,8.14,4.48,31.94,20.9,31.94c8.96,0,14.05-7.09,17.05-14.86
	h2.76c0.73,0.06,1.47-0.08,2.12-0.4c0.66-0.33,1.21-0.83,1.61-1.45c1.5-1.74,2.37-3.94,2.48-6.24
	C187.1,29.23,185.8,27.27,183.38,27.27z M169.49,48.81c-2.3,2.07-5.29,3.21-8.38,3.21s-6.08-1.14-8.38-3.21
	c-2.42-2.31-4.32-5.11-5.6-8.2c-2.24-5.55-3.67-11.39-4.24-17.35c0-0.21,0.07-0.41,0.21-0.57c0.14-0.16,0.33-0.25,0.54-0.27h34.7
	c0.15,0,0.29,0.03,0.42,0.09c0.13,0.06,0.25,0.15,0.35,0.25s0.17,0.24,0.21,0.38c0.04,0.14,0.06,0.29,0.04,0.43
	c-0.6,5.89-2.04,11.66-4.27,17.14C173.79,43.77,171.89,46.52,169.49,48.81z M182.36,36.87c-0.44,0.29-0.97,0.41-1.49,0.36h-2
	c0,0,1.76-6.06,2.09-7.46h2.37c0.78,0,1.13,0.96,1.21,2.02c-0.2,1.86-0.96,3.61-2.18,5.03V36.87z"/>
<path class="st0" d="M157.4,14.28c-0.01,0.07-0.01,0.14,0,0.21c0,0.16,0,0.31,0,0.46s0.12,0.54,0.18,0.78
	c0.16,0.46,0.31,0.84,0.43,1.09c0.12,0.25,0.13,0.21,0.16,0.27c-0.01,0.03-0.01,0.07,0,0.1c0.03,0.05,0.08,0.1,0.13,0.12
	s0.12,0.04,0.18,0.03c0.08-0.02,0.15-0.07,0.2-0.14c0.04-0.07,0.06-0.15,0.04-0.24c0,0,0-0.15,0-0.4c0-0.25-0.09-0.61-0.15-1.05
	c-0.02-0.23-0.02-0.46,0-0.69v-0.75c0.04-0.19,0.12-0.36,0.22-0.52c0.12-0.18,0.31-0.37,0.52-0.67c0.12-0.17,0.22-0.35,0.31-0.54
	c0-0.09,0-0.18,0.09-0.3c0.01-0.1,0.01-0.21,0-0.31c0-0.05,0-0.1,0-0.15v-0.28v-0.09c0.01-0.15,0.01-0.31,0-0.46
	c-0.07-0.54-0.19-1.06-0.34-1.58c-0.12-0.46-0.27-0.81-0.36-1.09c-0.09-0.28-0.16-0.4-0.16-0.4c-0.03-0.06-0.07-0.1-0.13-0.14
	c-0.06-0.03-0.12-0.05-0.18-0.04c-0.08,0.01-0.15,0.06-0.2,0.12c-0.05,0.06-0.07,0.14-0.07,0.22c0,0,0,0.15,0,0.4
	c0,0.25,0,0.64,0.12,1.07c0.12,0.43,0.09,0.97,0.13,1.49v0.4c0,0,0,0.3,0,0.33l-0.09,0.25c-0.04,0.1-0.09,0.2-0.15,0.28
	c-0.16,0.18-0.37,0.43-0.6,0.73c-0.21,0.35-0.32,0.74-0.33,1.15v0.25L157.4,14.28z"/>
<path class="st0" d="M159.86,14.22c-0.01,0.07-0.01,0.14,0,0.21c0,0.16,0,0.31,0,0.46s0.12,0.54,0.18,0.78
	c0.12,0.37,0.26,0.74,0.43,1.09l0.15,0.27v0.1c0.03,0.05,0.07,0.09,0.13,0.12c0.05,0.03,0.11,0.04,0.17,0.03
	c0.04-0.01,0.08-0.02,0.12-0.05c0.04-0.02,0.07-0.05,0.09-0.09c0.02-0.03,0.04-0.07,0.05-0.12c0.01-0.04,0.01-0.08,0-0.13
	c0,0,0-0.15,0-0.4c0-0.25-0.09-0.61-0.16-1.05c-0.02-0.23-0.02-0.46,0-0.69v-0.69c0.03-0.19,0.11-0.37,0.22-0.52
	c0.12-0.18,0.3-0.37,0.52-0.67c0.22-0.3,0.21-0.31,0.31-0.54c0.1-0.22,0-0.18,0.09-0.3c0.01-0.1,0.01-0.21,0-0.31
	c0-0.05,0-0.1,0-0.15v-0.28v-0.09c0.01-0.15,0.01-0.31,0-0.46c-0.08-0.53-0.19-1.06-0.34-1.58c-0.1-0.37-0.23-0.73-0.37-1.09
	l-0.15-0.4c-0.03-0.06-0.07-0.1-0.13-0.14c-0.06-0.03-0.12-0.05-0.18-0.04c-0.08,0.01-0.15,0.06-0.2,0.12
	c-0.05,0.06-0.07,0.14-0.07,0.22c0,0,0,0.15,0,0.4c0,0.25,0,0.64,0.12,1.07c0.12,0.43,0.09,0.97,0.12,1.49v0.4c0,0,0,0.3,0,0.33
	l-0.09,0.25c-0.04,0.1-0.09,0.2-0.15,0.28c-0.16,0.18-0.37,0.43-0.6,0.73c-0.21,0.35-0.33,0.74-0.34,1.15v0.16
	C159.77,14.13,159.86,14.19,159.86,14.22z"/>
<path class="st0" d="M162.3,14.22c-0.01,0.07-0.01,0.14,0,0.21c0,0.16,0,0.31,0,0.46l0.2,0.78c0.12,0.37,0.26,0.74,0.43,1.09
	l0.15,0.27c-0.01,0.03-0.01,0.07,0,0.1c0.03,0.05,0.08,0.09,0.14,0.12c0.05,0.03,0.12,0.04,0.18,0.03c0.08-0.02,0.15-0.07,0.2-0.14
	c0.05-0.07,0.07-0.15,0.05-0.24c0,0,0-0.15,0-0.4c0-0.25-0.1-0.61-0.16-1.05c-0.02-0.23-0.02-0.46,0-0.69v-0.69
	c0.03-0.19,0.11-0.37,0.22-0.52c0.12-0.18,0.3-0.37,0.52-0.67c0.11-0.17,0.21-0.35,0.3-0.54c0.05-0.1,0.08-0.2,0.1-0.3
	c0.01-0.1,0.01-0.21,0-0.31c0-0.05,0-0.1,0-0.15v-0.28v-0.09c0.02-0.15,0.02-0.31,0-0.46c-0.08-0.53-0.19-1.06-0.34-1.58
	c-0.12-0.46-0.28-0.81-0.37-1.09l-0.15-0.4c-0.03-0.05-0.08-0.1-0.13-0.13c-0.06-0.03-0.12-0.05-0.18-0.05
	c-0.08,0.01-0.15,0.06-0.21,0.12c-0.05,0.06-0.08,0.14-0.08,0.22v0.4c0,0.24,0,0.64,0.12,1.07c0.12,0.43,0.09,0.97,0.12,1.49v0.4
	c0,0,0,0.3,0,0.33l-0.09,0.25c-0.04,0.1-0.09,0.2-0.17,0.28c-0.15,0.18-0.36,0.43-0.58,0.73c-0.21,0.35-0.33,0.74-0.34,1.15v0.16
	C162.22,14.13,162.3,14.19,162.3,14.22z"/>
<path class="st0" d="M172.9,34.7h-23.57c-0.2,0-0.39,0.05-0.57,0.13c-0.18,0.09-0.33,0.22-0.45,0.38c-0.11,0.16-0.19,0.35-0.22,0.54
	c-0.03,0.2-0.01,0.4,0.05,0.58l0.75,2.03c2.99,7.46,6.99,11.17,12.21,11.17c5.23,0,9.23-3.64,12.23-11.17
	c0.28-0.67,0.52-1.36,0.75-2.03c0.07-0.19,0.08-0.39,0.05-0.58c-0.03-0.2-0.1-0.38-0.22-0.54c-0.11-0.16-0.27-0.29-0.44-0.38
	C173.29,34.75,173.09,34.7,172.9,34.7z"/>
</svg>
