<?xml version="1.0" encoding="utf-8"?>
<!-- Generator: Adobe Illustrator 28.0.0, SVG Export Plug-In . SVG Version: 6.00 Build 0)  -->
<svg version="1.1" id="Layer_1" xmlns="http://www.w3.org/2000/svg" xmlns:xlink="http://www.w3.org/1999/xlink" x="0px" y="0px"
	 viewBox="0 0 65.67 66" style="enable-background:new 0 0 65.67 66;" xml:space="preserve">
<style type="text/css">
	.st0{fill:#622F10;}
	.st1{fill:#FFFFFF;}
</style>
<circle class="st0" cx="32.63" cy="33.15" r="32.03"/>
<g>
	<path class="st1" d="M-101.27,40.74c-10.59,0-21.18,0-31.77,0c-3.7-1.47-5.95-4.26-7.22-7.94c0-7.22,0-14.44,0-21.66
		c4.25,0,8.51,0,13.12,0c-2.69,6.35-2.39,11.76,2.82,16.04c3.71,3.04,9.1,3.37,13.14,0.8c6.48-4.12,6.78-10.06,4.15-16.84
		c4.59,0,8.78,0,12.96,0c0,7.46,0,14.92,0,22.38C-95.5,36.88-97.79,39.4-101.27,40.74z"/>
	<path class="st1" d="M-130.87-5.47c0.24,0,0.48,0,0.72,0c0.03,2.04,0,4.09,0.12,6.12c0.11,1.83,0.39,3.65,0.6,5.48
		c0.48-0.07,0.97-0.13,1.45-0.2c0-3.8,0-7.6,0-11.4c8.9,0,17.81,0,26.71,0c2.41,2.41,4.81,4.81,7.22,7.22c0,2.65,0,5.29,0,7.94
		c-3-0.02-6-0.07-9.01-0.03c-3.11,0.04-5.98-0.1-8.8-2.07c-3.12-2.18-7.13-2.32-10.24-0.13c-3.28,2.32-6.67,2.19-10.23,2.19
		c-2.64,0-5.28,0.03-7.92,0.04c0-2.41,0-4.81,0-7.22c1-1.78,1.99-3.56,2.99-5.35c0.27,0.09,0.54,0.17,0.81,0.26
		c0.2,2.89,0.4,5.77,0.6,8.66c0.42-0.02,0.85-0.04,1.27-0.07c0.15-3.49,0.31-6.97,0.46-10.46c0.4,0.01,0.8,0.02,1.2,0.03
		c0,3.49,0,6.99,0,10.48c0.55,0.02,1.11,0.05,1.66,0.07C-131.13,2.24-131-1.62-130.87-5.47z M-102.4,6.34
		c2.8,0.4,4.24-0.34,4.18-3.61c-0.06-2.9-0.47-4.43-3.88-4.34c-3.02,0.08-4.32,0.82-4.22,4.1C-106.24,5.38-105.49,6.89-102.4,6.34z"
		/>
	<path class="st1" d="M-117.3,8.99c5.01-0.07,8.92,3.72,9.03,8.76c0.1,4.94-3.84,9.08-8.69,9.14c-4.94,0.06-8.92-3.82-9.02-8.8
		C-126.09,13.11-122.22,9.06-117.3,8.99z M-110.49,17.82c-0.03-3.64-2.98-6.59-6.62-6.62c-3.56-0.03-6.59,2.99-6.63,6.61
		c-0.05,3.78,3.11,6.94,6.82,6.82C-113.28,24.52-110.46,21.54-110.49,17.82z"/>
</g>
<rect x="10.94" y="13.01" class="st1" width="43.65" height="40.43"/>
<path class="st0" d="M52.76,9.62H12.71c-1.37,0-2.48,1.14-2.48,2.54v41.09c0,1.4,1.11,2.54,2.48,2.54h21.56V37.92h-5.87v-6.96h5.87
	V25.8c0-5.96,3.54-9.21,8.74-9.21c1.75-0.01,3.49,0.09,5.23,0.29v6.21h-3.6c-2.81,0-3.36,1.39-3.36,3.4v4.44H48l-0.86,6.98h-5.85
	v17.87h11.46c1.37,0.01,2.48-1.12,2.49-2.52c0-0.01,0-0.01,0-0.02V12.16C55.24,10.76,54.13,9.62,52.76,9.62"/>
</svg>
